<svg width="211" height="68" viewBox="0 0 211 68" fill="none" xmlns="http://www.w3.org/2000/svg">
<path d="M20.5745 34.6485L9.34014 46.1362V62.2561H0.5V0H9.34014V34.8338L42.859 0H52.9883L26.6521 27.9782L54.83 62.2561H44.5165L20.5745 34.6485Z" fill="#FF6060"/>
<path d="M119.289 57.2534L122.788 50.5831C126.84 53.3624 133.102 55.4005 139.179 55.4005C147.099 55.4005 150.23 52.9918 150.23 48.9155C150.23 38.3542 120.578 47.4332 120.578 28.7193C120.578 20.1962 128.129 14.6376 140.1 14.6376C146.178 14.6376 153.176 16.3051 157.228 18.8992L153.545 25.5695C149.309 22.7902 144.704 21.8637 140.1 21.8637C132.733 21.8637 129.05 24.643 129.05 28.3487C129.05 39.4659 158.701 30.3869 158.701 48.7302C158.701 57.2534 150.966 62.6267 138.443 62.6267C130.892 62.812 123.157 60.4032 119.289 57.2534Z" fill="#FF6060"/>
<path d="M210.823 33.722V62.2561H202.72V55.9564C199.957 60.2179 194.616 62.6267 187.249 62.6267C176.568 62.6267 169.938 56.8828 169.938 48.7302C169.938 41.1335 174.726 35.019 188.723 35.019H202.167V33.3515C202.167 26.1253 197.931 22.049 189.644 22.049C184.119 22.049 178.409 24.0871 174.726 27.0517L171.227 20.5667C176.015 16.6757 183.014 14.4523 190.564 14.4523C203.641 14.6376 210.823 20.9373 210.823 33.722ZM202.351 47.8038V41.1335H189.275C180.804 41.1335 178.409 44.4686 178.409 48.3596C178.409 52.9918 182.277 55.9564 188.723 55.9564C195.169 56.1416 200.325 53.3624 202.351 47.8038Z" fill="#FF6060"/>
<path d="M92.0312 49.8419V62.4413L97.3722 59.2915V46.692L92.0312 49.8419Z" fill="#FF6060"/>
<path d="M106.765 34.4632L84.8489 21.6784L72.6937 14.6376L60.7227 35.5749L60.9068 55.2152L82.6388 68L84.8489 66.703V48.1744L94.6098 30.9428L104.555 36.6866V55.2152L106.765 53.9182V34.4632Z" fill="#FF6060"/>
</svg>
