<svg width="122" height="40" viewBox="0 0 122 40" fill="none" xmlns="http://www.w3.org/2000/svg">
<path d="M11.6445 20.0984L5.12785 26.762V36.1125H0V0H5.12785V20.2058L24.5709 0H30.4466L15.1699 16.2292L31.5149 36.1125H25.5324L11.6445 20.0984Z" fill="white"/>
<path d="M68.9062 33.2107L70.936 29.3415C73.2863 30.9537 76.9185 32.1359 80.4439 32.1359C85.0376 32.1359 86.8537 30.7387 86.8537 28.3742C86.8537 22.248 69.6541 27.5144 69.6541 16.6591C69.6541 11.7151 74.0341 8.49081 80.9781 8.49081C84.5035 8.49081 88.563 9.45811 90.9133 10.9628L88.7767 14.832C86.3196 13.2198 83.6488 12.6824 80.9781 12.6824C76.7049 12.6824 74.5683 14.2946 74.5683 16.4442C74.5683 22.8928 91.7679 17.6264 91.7679 28.2667C91.7679 33.2107 87.281 36.3276 80.0166 36.3276C75.6365 36.4351 71.1497 35.0378 68.9062 33.2107Z" fill="white"/>
<path d="M122.001 19.5609V36.1125H117.301V32.4582C115.698 34.9302 112.6 36.3274 108.327 36.3274C102.131 36.3274 98.2852 32.9956 98.2852 28.2666C98.2852 23.86 101.063 20.3132 109.182 20.3132H116.98V19.3459C116.98 15.1543 114.523 12.7898 109.716 12.7898C106.511 12.7898 103.199 13.972 101.063 15.6917L99.033 11.9299C101.811 9.67291 105.87 8.38318 110.25 8.38318C117.835 8.49066 122.001 12.1449 122.001 19.5609ZM117.087 27.7292V23.86H109.502C104.588 23.86 103.199 25.7946 103.199 28.0516C103.199 30.7386 105.443 32.4582 109.182 32.4582C112.921 32.5657 115.912 30.9535 117.087 27.7292Z" fill="white"/>
<path d="M53.0938 28.9118V36.2203L56.1918 34.3931V27.0847L53.0938 28.9118Z" fill="white"/>
<path d="M61.6411 19.9909L48.9283 12.575L41.8776 8.49081L34.9336 20.6358L35.0404 32.0285L47.6464 39.4444L48.9283 38.6921V27.9443L54.5903 17.9489L60.3592 21.2807V32.0285L61.6411 31.2761V19.9909Z" fill="white"/>
</svg>
